Coordinates
version=1
nRows=21
nColumns=12
inDegrees=yes

Units are S.I. units (second, meters, Newtons, ...)
Angles are in degrees

endheader
time	SC_y	SC_z	SC_x	AC_y	AC_z	AC_x	GH_y	GH_z	GH_yy	EL_x	PS_y
       0.0              -13.37          32.49          64.37           35.5         -16.67         -8.326         -119.9          63.64         -122.9          125.9          5.634
  0.005722              -13.37          32.48          64.37           35.5         -16.67         -8.326         -119.9          63.63         -122.9          125.9          5.642
   0.01144              -13.37          32.48          64.37           35.5         -16.67         -8.326         -119.9          63.62         -122.8          125.9          5.651
   0.01717              -13.38          32.48          64.37          35.51         -16.66         -8.326         -119.9          63.61         -122.8          125.9           5.66
   0.02289              -13.38          32.47          64.37          35.51         -16.66         -8.326         -119.9          63.61         -122.8          125.9          5.669
   0.02861              -13.39          32.47          64.37          35.51         -16.66         -8.326         -119.9           63.6         -122.8          125.8          5.679
   0.03433              -13.39          32.46          64.36          35.51         -16.65         -8.326         -120.0          63.59         -122.7          125.8           5.69
   0.04005              -13.39          32.46          64.36          35.51         -16.65         -8.326         -120.0          63.58         -122.7          125.8          5.702
   0.04578               -13.4          32.45          64.36          35.51         -16.64         -8.326         -120.0          63.57         -122.7          125.8          5.714
    0.0515               -13.4          32.45          64.36          35.51         -16.64         -8.326         -120.0          63.56         -122.7          125.8          5.727
   0.05722              -13.41          32.44          64.36          35.51         -16.63         -8.326         -120.0          63.54         -122.6          125.7          5.742
   0.06294              -13.42          32.43          64.35          35.51         -16.63         -8.327         -120.0          63.53         -122.6          125.7          5.757
   0.06866              -13.42          32.43          64.35          35.51         -16.62         -8.327         -120.0          63.52         -122.5          125.7          5.774
   0.07439              -13.43          32.42          64.35          35.52         -16.61         -8.327         -120.0           63.5         -122.5          125.7          5.791
   0.08011              -13.44          32.41          64.35          35.52          -16.6         -8.327         -120.0          63.49         -122.5          125.6          5.811
   0.08583              -13.45           32.4          64.34          35.52          -16.6         -8.327         -120.0          63.47         -122.4          125.6          5.832
   0.09155              -13.46          32.39          64.34          35.52         -16.59         -8.327         -120.0          63.45         -122.4          125.5          5.855
   0.09727              -13.47          32.38          64.34          35.52         -16.58         -8.327         -120.0          63.43         -122.3          125.5           5.88
     0.103              -13.48          32.37          64.33          35.53         -16.57         -8.327         -120.0           63.4         -122.2          125.5          5.907
    0.1087              -13.49          32.35          64.33          35.53         -16.55         -8.327         -120.0          63.38         -122.2          125.4          5.937
    0.1144               -13.5          32.34          64.32          35.53         -16.54         -8.327         -120.0          63.35         -122.1          125.4          5.969
